#N canvas 0 23 1680 1005 10;
#X obj 103 68 receive fromNetwork;
#X obj 103 203 send toNetwork;
#X obj 306 139 route /pingAndConnect/playerNumberSet;
#X obj 103 88 list trim;
#X obj 103 141 route /send;
#X obj 103 171 list prepend /send;
#X obj -15 203 print Sending:;
#X obj 341 165 print Ping And Connect:;
#X obj 105 310 loadbang;
#X obj 305 280 netsend -u -b;
#X obj 306 197 oscformat /players;
#X obj 305 223 list prepend send;
#X obj 305 251 list trim;
#X obj 105 535 send toGUI;
#X obj 571 136 receive fromGUI;
#X obj 571 158 list trim;
#X obj 571 182 route /IPMenu;
#X obj 571 203 unpack 0 s;
#X msg 628 235 connect \$1 54320;
#X obj 628 266 print Connecting:;
#X msg 105 334 list /IPMenu 10.0.0.0 10.0.0.1 10.0.0.2 10.0.0.3 10.0.0.4
10.0.0.5 10.0.0.6 10.0.0.7 10.0.0.8 10.0.0.9 10.0.0.10 10.0.0.11 10.0.0.12
10.0.0.13 10.0.0.14 10.0.0.15 10.0.0.16 10.0.0.17 10.0.0.18 10.0.0.19
10.0.0.20 10.0.0.21 10.0.0.22 10.0.0.23 10.0.0.24 10.0.0.25 10.0.0.26
10.0.0.27 10.0.0.28 10.0.0.29 10.0.0.30 10.0.0.31 10.0.0.32 10.0.0.33
10.0.0.34 10.0.0.35 10.0.0.36 10.0.0.37 10.0.0.38 10.0.0.39 10.0.0.40
10.0.0.41 10.0.0.42 10.0.0.43 10.0.0.44 10.0.0.45 10.0.0.46 10.0.0.47
10.0.0.48 10.0.0.49 10.0.0.50 10.0.0.51 10.0.0.52 10.0.0.53 10.0.0.54
10.0.0.55 10.0.0.56 10.0.0.57 10.0.0.58 10.0.0.59 10.0.0.60 10.0.0.61
10.0.0.62 10.0.0.63 10.0.0.64 10.0.0.65 10.0.0.66 10.0.0.67 10.0.0.68
10.0.0.69 10.0.0.70 10.0.0.71 10.0.0.72 10.0.0.73 10.0.0.74 10.0.0.75
10.0.0.76 10.0.0.77 10.0.0.78 10.0.0.79 10.0.0.80 10.0.0.81 10.0.0.82
10.0.0.83 10.0.0.84 10.0.0.85 10.0.0.86 10.0.0.87 10.0.0.88 10.0.0.89
10.0.0.90 10.0.0.91 10.0.0.92 10.0.0.93 10.0.0.94 10.0.0.95 10.0.0.96
10.0.0.97 10.0.0.98 10.0.0.99 10.0.1.0 10.0.1.1 10.0.1.2 10.0.1.3 10.0.1.4
10.0.1.5 10.0.1.6 10.0.1.7 10.0.1.8 10.0.1.9 10.0.1.10 10.0.1.11 10.0.1.12
10.0.1.13 10.0.1.14 10.0.1.15 10.0.1.16 10.0.1.17 10.0.1.18 10.0.1.19
10.0.1.20 10.0.1.21 10.0.1.22 10.0.1.23 10.0.1.24 10.0.1.25 10.0.1.26
10.0.1.27 10.0.1.28 10.0.1.29 10.0.1.30 10.0.1.31 10.0.1.32 10.0.1.33
10.0.1.34 10.0.1.35 10.0.1.36 10.0.1.37 10.0.1.38 10.0.1.39 10.0.1.40
10.0.1.41 10.0.1.42 10.0.1.43 10.0.1.44 10.0.1.45 10.0.1.46 10.0.1.47
10.0.1.48 10.0.1.49 10.0.1.50 10.0.1.51 10.0.1.52 10.0.1.53 10.0.1.54
10.0.1.55 10.0.1.56 10.0.1.57 10.0.1.58 10.0.1.59 10.0.1.60 10.0.1.61
10.0.1.62 10.0.1.63 10.0.1.64 10.0.1.65 10.0.1.66 10.0.1.67 10.0.1.68
10.0.1.69 10.0.1.70 10.0.1.71 10.0.1.72 10.0.1.73 10.0.1.74 10.0.1.75
10.0.1.76 10.0.1.77 10.0.1.78 10.0.1.79 10.0.1.80 10.0.1.81 10.0.1.82
10.0.1.83 10.0.1.84 10.0.1.85 10.0.1.86 10.0.1.87 10.0.1.88 10.0.1.89
10.0.1.90 10.0.1.91 10.0.1.92 10.0.1.93 10.0.1.94 10.0.1.95 10.0.1.96
10.0.1.97 10.0.1.98 10.0.1.99;
#X connect 0 0 3 0;
#X connect 2 0 7 0;
#X connect 2 0 10 0;
#X connect 3 0 2 0;
#X connect 3 0 4 0;
#X connect 4 0 5 0;
#X connect 5 0 1 0;
#X connect 5 0 6 0;
#X connect 8 0 20 0;
#X connect 10 0 11 0;
#X connect 11 0 12 0;
#X connect 12 0 9 0;
#X connect 14 0 15 0;
#X connect 15 0 16 0;
#X connect 16 0 17 0;
#X connect 17 1 18 0;
#X connect 18 0 9 0;
#X connect 18 0 19 0;
#X connect 20 0 13 0;
