#N canvas 840 23 840 1005 10;
#X obj 42 32 receive fromGUI;
#X obj 42 65 route list;
#X obj 173 59 route list;
#X obj 173 33 receive fromNetwork;
#X obj 42 149 gswitch2;
#X obj 41 212 route /freq;
#X obj 137 131 tgl 15 0 empty empty empty 17 7 0 10 -262144 -1 -1 0
1;
#X text 160 132 0 \, GUI control - 1 \, network control;
#X obj 172 91 route /control;
#X obj 244 527 vsl 15 128 0 1 0 0 empty empty empty 0 -9 0 10 -262144
-1 -1 2566 1;
#X obj 125 599 *~;
#X obj 123 644 dac~;
#X obj 41 366 osc~ 440;
#X obj 128 212 route /vol;
#X obj 209 212 route /mute;
#X obj 125 567 *~ 1;
#X obj 209 242 == 0;
#X obj 41 280 send freq;
#X obj 41 337 receive freq;
#X obj 209 269 send mute;
#X obj 146 540 receive mute;
#X obj 128 238 send vol;
#X obj 244 496 receive vol;
#X obj 303 211 route /wave;
#X obj 41 414 *~ 1;
#X obj 304 243 == 0;
#X obj 373 269 send saw;
#X obj 154 337 receive freq;
#X obj 154 366 phasor~ 440;
#X obj 175 390 receive saw;
#X obj 373 242 == 1;
#X obj 154 414 *~ 1;
#X obj 62 390 receive sin;
#X obj 304 273 send sin;
#X obj 527 422 send toGUI;
#X obj 527 390 gswitch2;
#X obj 509 303 receive status;
#X obj 138 155 send status;
#X obj 509 329 trigger b f;
#X msg 409 359 list /status Control: GUI;
#X msg 598 360 list /status Control: Network;
#X obj -100 152 send toGUI;
#X obj -89 81 del 100;
#X obj -89 56 bng 15 250 50 0 empty empty empty 17 7 0 10 -262144 -1
-1;
#X msg -100 108 list /guiPing 1;
#X msg -89 129 list /guiPing 0;
#X obj -68 16 route /guiPing;
#X obj 424 166 send toGUI;
#X obj 435 95 del 100;
#X obj 435 70 bng 15 250 50 0 empty empty empty 17 7 0 10 -262144 -1
-1;
#X obj 456 30 route /networkPing;
#X msg 424 122 list /networkPing 1;
#X msg 435 143 list /networkPing 0;
#X obj 481 439 receive status;
#X obj 349 641 loadbang;
#X msg 352 670 list /networkPing enable 0;
#X obj 352 718 send toGUI;
#X msg 339 692 list /guiPing enable 0;
#X msg 494 499 list /freq enable \$1;
#X msg 485 521 list /vol enable \$1;
#X msg 473 542 list /mute enable \$1;
#X msg 464 563 list /wave enable \$1;
#X obj 463 593 send toGUI;
#X obj 481 463 == 0;
#X obj 41 250 mtof;
#X connect 0 0 1 0;
#X connect 1 0 4 0;
#X connect 1 0 46 0;
#X connect 2 0 4 1;
#X connect 2 0 8 0;
#X connect 2 0 50 0;
#X connect 3 0 2 0;
#X connect 4 0 5 0;
#X connect 4 0 13 0;
#X connect 4 0 14 0;
#X connect 4 0 23 0;
#X connect 5 0 64 0;
#X connect 6 0 4 2;
#X connect 6 0 37 0;
#X connect 8 0 6 0;
#X connect 9 0 10 1;
#X connect 10 0 11 0;
#X connect 10 0 11 1;
#X connect 12 0 24 0;
#X connect 13 0 21 0;
#X connect 14 0 16 0;
#X connect 15 0 10 0;
#X connect 16 0 19 0;
#X connect 18 0 12 0;
#X connect 20 0 15 1;
#X connect 22 0 9 0;
#X connect 23 0 25 0;
#X connect 23 0 30 0;
#X connect 24 0 15 0;
#X connect 25 0 33 0;
#X connect 27 0 28 0;
#X connect 28 0 31 0;
#X connect 29 0 31 1;
#X connect 30 0 26 0;
#X connect 31 0 15 0;
#X connect 32 0 24 1;
#X connect 35 0 34 0;
#X connect 36 0 38 0;
#X connect 38 0 39 0;
#X connect 38 0 40 0;
#X connect 38 1 35 2;
#X connect 39 0 35 0;
#X connect 40 0 35 1;
#X connect 42 0 45 0;
#X connect 43 0 42 0;
#X connect 44 0 41 0;
#X connect 45 0 41 0;
#X connect 46 1 44 0;
#X connect 46 1 43 0;
#X connect 48 0 52 0;
#X connect 49 0 48 0;
#X connect 50 1 51 0;
#X connect 50 1 49 0;
#X connect 51 0 47 0;
#X connect 52 0 47 0;
#X connect 53 0 63 0;
#X connect 54 0 55 0;
#X connect 54 0 57 0;
#X connect 55 0 56 0;
#X connect 57 0 56 0;
#X connect 58 0 62 0;
#X connect 59 0 62 0;
#X connect 60 0 62 0;
#X connect 61 0 62 0;
#X connect 63 0 58 0;
#X connect 63 0 59 0;
#X connect 63 0 60 0;
#X connect 63 0 61 0;
#X connect 64 0 17 0;
